<svg width="92" height="55" viewBox="0 0 92 55" fill="none" xmlns="http://www.w3.org/2000/svg">
<path d="M14.928 49.04L14.0188 50.8214L14.0262 50.8252L14.928 49.04ZM14.928 5.136L14.0262 3.35082L14.0188 3.35463L14.928 5.136ZM43.856 5.136L42.9468 6.91738L42.9542 6.92115L43.856 5.136ZM53.456 13.904L51.7427 14.9359L51.747 14.943L51.7514 14.95L53.456 13.904ZM53.456 40.272L51.7514 39.226L51.747 39.233L51.7427 39.2401L53.456 40.272ZM43.856 49.04L42.9542 47.2548L42.9468 47.2586L43.856 49.04ZM38.736 17.424L37.2949 18.8108L37.3016 18.8178L37.3084 18.8247L38.736 17.424ZM20.112 17.424L18.6978 16.0098L18.6911 16.0165L18.6844 16.0233L20.112 17.424ZM20.112 36.752L18.6714 38.1393L18.6844 38.1529L18.6978 38.1662L20.112 36.752ZM29.456 50.176C24.1617 50.176 19.6391 49.1791 15.8298 47.2548L14.0262 50.8252C18.4943 53.0822 23.657 54.176 29.456 54.176V50.176ZM15.8372 47.2586C12.0568 45.329 9.16415 42.6587 7.10527 39.2401L3.67873 41.3039C6.14251 45.3947 9.60716 48.5696 14.0188 50.8214L15.8372 47.2586ZM7.10527 39.2401C5.05803 35.841 4 31.8141 4 27.088H0C0 32.4312 1.20329 37.1937 3.67873 41.3039L7.10527 39.2401ZM4 27.088C4 22.3619 5.05803 18.335 7.10527 14.9359L3.67874 12.8721C1.2033 16.9823 0 21.7448 0 27.088H4ZM7.10527 14.9359C9.16415 11.5173 12.0568 8.84695 15.8372 6.91737L14.0188 3.35463C9.60716 5.60638 6.14251 8.78134 3.67874 12.8721L7.10527 14.9359ZM15.8298 6.92116C19.6391 4.99687 24.1617 4 29.456 4V0C23.657 0 18.4943 1.09377 14.0262 3.35082L15.8298 6.92116ZM29.456 4C34.7056 4 39.1826 4.99607 42.9468 6.91738L44.7652 3.35463C40.3374 1.0946 35.2144 0 29.456 0V4ZM42.9542 6.92115C46.7772 8.85237 49.6871 11.5226 51.7427 14.9359L55.1693 12.8721C52.7023 8.77602 49.2121 5.60096 44.7578 3.35084L42.9542 6.92115ZM51.7514 14.95C53.8359 18.347 54.912 22.3687 54.912 27.088H58.912C58.912 21.738 57.6841 16.9703 55.1607 12.858L51.7514 14.95ZM54.912 27.088C54.912 31.8073 53.8359 35.829 51.7514 39.226L55.1607 41.318C57.6841 37.2057 58.912 32.438 58.912 27.088H54.912ZM51.7427 39.2401C49.6871 42.6534 46.7772 45.3236 42.9542 47.2548L44.7578 50.8252C49.2121 48.575 52.7023 45.4 55.1693 41.3039L51.7427 39.2401ZM42.9468 47.2586C39.1826 49.1799 34.7056 50.176 29.456 50.176V54.176C35.2144 54.176 40.3374 53.0814 44.7652 50.8214L42.9468 47.2586ZM29.456 42.144C33.851 42.144 37.5263 40.8936 40.1771 38.1388L37.2954 35.3647C35.5943 37.1326 33.0824 38.144 29.456 38.144V42.144ZM40.1771 38.1388C42.851 35.3621 44.064 31.5862 44.064 27.088H40.064C40.064 30.8671 39.0589 33.5334 37.2954 35.3647L40.1771 38.1388ZM44.064 27.088C44.064 22.5561 42.8548 18.7663 40.1636 16.0233L37.3084 18.8247C39.0545 20.6044 40.064 23.2573 40.064 27.088H44.064ZM40.1771 16.0372C37.5263 13.2824 33.851 12.032 29.456 12.032V16.032C33.0824 16.032 35.5938 17.0429 37.2949 18.8108L40.1771 16.0372ZM29.456 12.032C25.0928 12.032 21.4201 13.2875 18.6978 16.0098L21.5262 18.8382C23.3266 17.0378 25.8832 16.032 29.456 16.032V12.032ZM18.6844 16.0233C15.9932 18.7663 14.784 22.5561 14.784 27.088H18.784C18.784 23.2573 19.7935 20.6044 21.5396 18.8247L18.6844 16.0233ZM14.784 27.088C14.784 31.5862 15.9975 35.3626 18.6714 38.1393L21.5526 35.3647C19.7892 33.5334 18.784 30.8671 18.784 27.088H14.784ZM18.6978 38.1662C21.4201 40.8885 25.0928 42.144 29.456 42.144V38.144C25.8832 38.144 23.3266 37.1382 21.5262 35.3378L18.6978 38.1662ZM89.0795 3.088H91.0795V1.088H89.0795V3.088ZM89.0795 51.088V53.088H91.0795V51.088H89.0795ZM74.3595 51.088H72.3595V53.088H74.3595V51.088ZM74 15.5L76.3595 17.5L74.3595 16L74 15V15.5ZM60.1515 18.256H58.1515V20.6348L60.4949 20.2263L60.1515 18.256ZM60.1515 6.864L59.7419 4.90638L58.1515 5.23913V6.864H60.1515ZM78.1995 3.088V1.088H77.9925L77.7899 1.13038L78.1995 3.088ZM87.0795 3.088V51.088H91.0795V3.088H87.0795ZM89.0795 49.088H74.3595V53.088H89.0795V49.088ZM76.3595 51.088V13.4006L72.3595 14.0978V51.088H76.3595ZM72.3595 14.0978L75 15.5L74 15L76.3595 13.4006L74.3595 13.7492L72.3595 14.0978ZM76.3595 13.4006L59.8081 16.2857L60.4949 20.2263L76.3595 17.5V13.4006ZM62.1515 18.256V6.864H58.1515V18.256H62.1515ZM60.5611 8.82161L78.6091 5.04561L77.7899 1.13038L59.7419 4.90638L60.5611 8.82161ZM78.1995 5.088H89.0795V1.088H78.1995V5.088Z" fill="#151515"/>
</svg>
