<svg width="113" height="55" viewBox="0 0 113 55" fill="none" xmlns="http://www.w3.org/2000/svg">
<path d="M14.928 49.04L14.0188 50.8214L14.0262 50.8252L14.928 49.04ZM14.928 5.136L14.0262 3.35082L14.0188 3.35463L14.928 5.136ZM43.856 5.136L42.9468 6.91738L42.9542 6.92115L43.856 5.136ZM53.456 13.904L51.7427 14.9359L51.747 14.943L51.7514 14.95L53.456 13.904ZM53.456 40.272L51.7514 39.226L51.747 39.233L51.7427 39.2401L53.456 40.272ZM43.856 49.04L42.9542 47.2548L42.9468 47.2586L43.856 49.04ZM38.736 17.424L37.2949 18.8108L37.3016 18.8178L37.3084 18.8247L38.736 17.424ZM20.112 17.424L18.6978 16.0098L18.6911 16.0165L18.6844 16.0233L20.112 17.424ZM20.112 36.752L18.6714 38.1393L18.6844 38.1529L18.6978 38.1662L20.112 36.752ZM29.456 50.176C24.1617 50.176 19.6391 49.1791 15.8298 47.2548L14.0262 50.8252C18.4943 53.0822 23.657 54.176 29.456 54.176V50.176ZM15.8372 47.2586C12.0568 45.329 9.16415 42.6587 7.10527 39.2401L3.67873 41.3039C6.14251 45.3947 9.60716 48.5696 14.0188 50.8214L15.8372 47.2586ZM7.10527 39.2401C5.05803 35.841 4 31.8141 4 27.088H0C0 32.4312 1.20329 37.1937 3.67873 41.3039L7.10527 39.2401ZM4 27.088C4 22.3619 5.05803 18.335 7.10527 14.9359L3.67874 12.8721C1.2033 16.9823 0 21.7448 0 27.088H4ZM7.10527 14.9359C9.16415 11.5173 12.0568 8.84695 15.8372 6.91737L14.0188 3.35463C9.60716 5.60638 6.14251 8.78134 3.67874 12.8721L7.10527 14.9359ZM15.8298 6.92116C19.6391 4.99687 24.1617 4 29.456 4V0C23.657 0 18.4943 1.09377 14.0262 3.35082L15.8298 6.92116ZM29.456 4C34.7056 4 39.1826 4.99607 42.9468 6.91738L44.7652 3.35463C40.3374 1.0946 35.2144 0 29.456 0V4ZM42.9542 6.92115C46.7772 8.85237 49.6871 11.5226 51.7427 14.9359L55.1693 12.8721C52.7023 8.77602 49.2121 5.60096 44.7578 3.35084L42.9542 6.92115ZM51.7514 14.95C53.8359 18.347 54.912 22.3687 54.912 27.088H58.912C58.912 21.738 57.6841 16.9703 55.1607 12.858L51.7514 14.95ZM54.912 27.088C54.912 31.8073 53.8359 35.829 51.7514 39.226L55.1607 41.318C57.6841 37.2057 58.912 32.438 58.912 27.088H54.912ZM51.7427 39.2401C49.6871 42.6534 46.7772 45.3236 42.9542 47.2548L44.7578 50.8252C49.2121 48.575 52.7023 45.4 55.1693 41.3039L51.7427 39.2401ZM42.9468 47.2586C39.1826 49.1799 34.7056 50.176 29.456 50.176V54.176C35.2144 54.176 40.3374 53.0814 44.7652 50.8214L42.9468 47.2586ZM29.456 42.144C33.851 42.144 37.5263 40.8936 40.1771 38.1388L37.2954 35.3647C35.5943 37.1326 33.0824 38.144 29.456 38.144V42.144ZM40.1771 38.1388C42.851 35.3621 44.064 31.5862 44.064 27.088H40.064C40.064 30.8671 39.0589 33.5334 37.2954 35.3647L40.1771 38.1388ZM44.064 27.088C44.064 22.5561 42.8548 18.7663 40.1636 16.0233L37.3084 18.8247C39.0545 20.6044 40.064 23.2573 40.064 27.088H44.064ZM40.1771 16.0372C37.5263 13.2824 33.851 12.032 29.456 12.032V16.032C33.0824 16.032 35.5938 17.0429 37.2949 18.8108L40.1771 16.0372ZM29.456 12.032C25.0928 12.032 21.4201 13.2875 18.6978 16.0098L21.5262 18.8382C23.3266 17.0378 25.8832 16.032 29.456 16.032V12.032ZM18.6844 16.0233C15.9932 18.7663 14.784 22.5561 14.784 27.088H18.784C18.784 23.2573 19.7935 20.6044 21.5396 18.8247L18.6844 16.0233ZM14.784 27.088C14.784 31.5862 15.9975 35.3626 18.6714 38.1393L21.5526 35.3647C19.7892 33.5334 18.784 30.8671 18.784 27.088H14.784ZM18.6978 38.1662C21.4201 40.8885 25.0928 42.144 29.456 42.144V38.144C25.8832 38.144 23.3266 37.1382 21.5262 35.3378L18.6978 38.1662ZM61.3005 20.624L59.3065 20.4689L59.1389 22.624H61.3005V20.624ZM65.1405 10.704L63.5926 9.43752L63.5905 9.44012L65.1405 10.704ZM98.9325 4.048L98.1816 5.90172L98.1897 5.90495L98.9325 4.048ZM106.869 9.744L105.285 10.9661L105.291 10.9729L105.296 10.9796L106.869 9.744ZM107.572 25.104L105.903 24.0023L105.896 24.0141L105.888 24.0259L107.572 25.104ZM101.173 31.376L102.31 33.0213L102.318 33.0156L102.326 33.0099L101.173 31.376ZM89.8445 37.52L89.0245 35.6958L89.016 35.6996L89.0076 35.7035L89.8445 37.52ZM110.965 39.44H112.965V37.44H110.965V39.44ZM110.965 51.088V53.088H112.965V51.088H110.965ZM62.5165 51.088H60.5165V53.088H62.5165V51.088ZM62.5165 40.848L61.5554 39.0941L60.5165 39.6634V40.848H62.5165ZM90.3565 25.296L91.4659 26.9601L91.4805 26.9504L91.4949 26.9404L90.3565 25.296ZM93.8765 22.16L95.494 23.3363L95.5063 23.3194L95.5183 23.3021L93.8765 22.16ZM91.0605 14.032L90.3512 15.902L90.3616 15.9059L90.372 15.9097L91.0605 14.032ZM80.7565 14.352L81.5638 16.1818L81.5759 16.1765L81.588 16.1709L80.7565 14.352ZM77.4285 16.976L75.7841 15.8376L75.7691 15.8593L75.7546 15.8815L77.4285 16.976ZM76.0845 20.624V22.624H77.843L78.0681 20.8799L76.0845 20.624ZM63.2945 20.7791C63.5641 17.3126 64.7066 14.401 66.6905 11.9679L63.5905 9.44012C61.0517 12.5537 59.6342 16.2554 59.3065 20.4689L63.2945 20.7791ZM66.6884 11.9705C68.7505 9.4502 71.5061 7.48487 75.0245 6.10125L73.5605 2.37875C69.4842 3.98179 66.1385 6.32579 63.5926 9.43752L66.6884 11.9705ZM75.0245 6.10125C78.5544 4.71308 82.5673 4 87.0925 4V0C82.1457 0 77.6253 0.780252 73.5605 2.37875L75.0245 6.10125ZM87.0925 4C91.4184 4 95.0999 4.65341 98.1816 5.90172L99.6834 2.1943C96.0238 0.711937 91.812 0 87.0925 0V4ZM98.1897 5.90495C101.337 7.16375 103.666 8.86805 105.285 10.9661L108.452 8.52189C106.317 5.75595 103.355 3.66292 99.6753 2.19105L98.1897 5.90495ZM105.296 10.9796C106.881 12.997 107.685 15.3506 107.685 18.128H111.685C111.685 14.5054 110.611 11.2697 108.441 8.50835L105.296 10.9796ZM107.685 18.128C107.685 20.2473 107.099 22.1905 105.903 24.0023L109.242 26.2057C110.862 23.7508 111.685 21.0434 111.685 18.128H107.685ZM105.888 24.0259C104.706 25.8726 102.788 27.7876 100.019 29.7421L102.326 33.0099C105.36 30.8684 107.708 28.602 109.257 26.1821L105.888 24.0259ZM100.035 29.7307C97.2674 31.6439 93.6086 33.6351 89.0245 35.6958L90.6645 39.3442C95.3817 37.2236 99.2749 35.1188 102.31 33.0213L100.035 29.7307ZM89.0076 35.7035L85.2381 37.44L77.3005 41.44L90.6814 39.3365L89.0076 35.7035ZM77.3005 41.44H110.965V37.44H85.2381L77.3005 41.44ZM108.965 39.44V51.088H112.965V39.44H108.965ZM110.965 49.088H62.5165V53.088H110.965V49.088ZM64.5165 51.088V40.848H60.5165V51.088H64.5165ZM63.4776 42.6019L84.1496 31.2739L82.2274 27.766L61.5554 39.0941L63.4776 42.6019ZM84.1496 31.2739C87.2826 29.5571 89.7306 28.117 91.4659 26.9601L89.2471 23.6319C87.6544 24.6937 85.3237 26.0694 82.2274 27.766L84.1496 31.2739ZM91.4949 26.9404C93.2277 25.7408 94.6158 24.5438 95.494 23.3363L92.259 20.9837C91.7719 21.6535 90.8133 22.5472 89.2181 23.6516L91.4949 26.9404ZM95.5183 23.3021C96.4151 22.013 96.9005 20.5738 96.9005 19.024H92.9005C92.9005 19.6929 92.7032 20.3444 92.2347 21.0179L95.5183 23.3021ZM96.9005 19.024C96.9005 17.476 96.4614 16.0438 95.5405 14.816L92.3405 17.216C92.6997 17.6949 92.9005 18.268 92.9005 19.024H96.9005ZM95.5405 14.816C94.6119 13.5779 93.2918 12.72 91.749 12.1542L90.372 15.9097C91.3891 16.2827 91.9891 16.7474 92.3405 17.216L95.5405 14.816ZM91.7698 12.162C90.2413 11.5822 88.4705 11.328 86.5165 11.328V15.328C88.1465 15.328 89.4051 15.5431 90.3512 15.902L91.7698 12.162ZM86.5165 11.328C83.9971 11.328 81.7663 11.6913 79.925 12.5331L81.588 16.1709C82.7334 15.6473 84.3426 15.328 86.5165 15.328V11.328ZM79.9492 12.5222C78.221 13.2846 76.7964 14.3754 75.7841 15.8376L79.0729 18.1144C79.5966 17.358 80.3907 16.6994 81.5638 16.1818L79.9492 12.5222ZM75.7546 15.8815C74.863 17.245 74.31 18.748 74.1009 20.3681L78.0681 20.8799C78.2004 19.8546 78.5433 18.9256 79.1024 18.0705L75.7546 15.8815ZM76.0845 18.624H61.3005V22.624H76.0845V18.624Z" fill="#151515"/>
</svg>
