<svg width="114" height="55" viewBox="0 0 114 54" fill="none" xmlns="http://www.w3.org/2000/svg">
<path d="M15.0392 48.8807L14.1232 50.6563L14.1307 50.6601L15.0392 48.8807ZM15.0392 5.11931L14.1307 3.33993L14.1232 3.34373L15.0392 5.11931ZM44.1827 5.11931L43.2667 6.89491L43.2742 6.89867L44.1827 5.11931ZM53.8542 13.8588L52.1282 14.8874L52.1325 14.8945L52.1369 14.9014L53.8542 13.8588ZM53.8542 40.1412L52.1369 39.0986L52.1325 39.1055L52.1282 39.1126L53.8542 40.1412ZM44.1827 48.8807L43.2742 47.1013L43.2667 47.1051L44.1827 48.8807ZM39.0246 17.3674L37.5727 18.7497L37.5795 18.7567L37.5863 18.7635L39.0246 17.3674ZM20.2618 17.3674L18.8371 15.9578L18.8303 15.9645L18.8236 15.9712L20.2618 17.3674ZM20.2618 36.6326L18.8105 38.0154L18.8236 38.029L18.8371 38.0422L20.2618 36.6326ZM29.6754 50.013C24.3417 50.013 19.7854 49.0193 15.9477 47.1013L14.1307 50.6601C18.6321 52.9098 23.8332 54 29.6754 54V50.013ZM15.9552 47.1051C12.1466 45.1817 9.23242 42.5201 7.1582 39.1126L3.70614 41.1697C6.18827 45.2472 9.67873 48.4118 14.1232 50.6563L15.9552 47.1051ZM7.1582 39.1126C5.09571 35.7246 4.0298 31.7107 4.0298 27H0C0 32.3258 1.21225 37.0729 3.70614 41.1697L7.1582 39.1126ZM4.0298 27C4.0298 22.2893 5.09571 18.2754 7.1582 14.8874L3.70615 12.8303C1.21226 16.9271 0 21.6742 0 27H4.0298ZM7.1582 14.8874C9.23242 11.4799 12.1466 8.81821 15.9552 6.8949L14.1232 3.34373C9.67873 5.58817 6.18827 8.75281 3.70615 12.8303L7.1582 14.8874ZM15.9477 6.89867C19.7854 4.98064 24.3417 3.98701 29.6754 3.98701V0C23.8332 0 18.6321 1.09022 14.1307 3.33993L15.9477 6.89867ZM29.6754 3.98701C34.9642 3.98701 39.4745 4.97984 43.2667 6.89491L45.0987 3.34373C40.6379 1.09104 35.4767 0 29.6754 0V3.98701ZM43.2742 6.89867C47.1257 8.82361 50.0573 11.4852 52.1282 14.8874L55.5803 12.8303C53.0949 8.74751 49.5787 5.58276 45.0912 3.33995L43.2742 6.89867ZM52.1369 14.9014C54.237 18.2874 55.3211 22.296 55.3211 27H59.3509C59.3509 21.6674 58.1138 16.9152 55.5716 12.8162L52.1369 14.9014ZM55.3211 27C55.3211 31.704 54.237 35.7126 52.1369 39.0986L55.5716 41.1838C58.1138 37.0848 59.3509 32.3326 59.3509 27H55.3211ZM52.1282 39.1126C50.0573 42.5148 47.1257 45.1764 43.2742 47.1013L45.0912 50.6601C49.5787 48.4172 53.0949 45.2525 55.5803 41.1697L52.1282 39.1126ZM43.2667 47.1051C39.4745 49.0201 34.9642 50.013 29.6754 50.013V54C35.4767 54 40.6379 52.909 45.0987 50.6563L43.2667 47.1051ZM29.6754 42.0071C34.1032 42.0071 37.8059 40.7608 40.4764 38.0149L37.5732 35.2498C35.8595 37.012 33.3289 38.0201 29.6754 38.0201V42.0071ZM40.4764 38.0149C43.1702 35.2472 44.3923 31.4836 44.3923 27H40.3625C40.3625 30.7668 39.3499 33.4245 37.5732 35.2498L40.4764 38.0149ZM44.3923 27C44.3923 22.4828 43.1741 18.7053 40.4628 15.9712L37.5863 18.7635C39.3455 20.5375 40.3625 23.1817 40.3625 27H44.3923ZM40.4764 15.9851C37.8059 13.2392 34.1032 11.9929 29.6754 11.9929V15.9799C33.3289 15.9799 35.859 16.9875 37.5727 18.7497L40.4764 15.9851ZM29.6754 11.9929C25.2797 11.9929 21.5797 13.2443 18.8371 15.9578L21.6866 18.777C23.5004 16.9824 26.076 15.9799 29.6754 15.9799V11.9929ZM18.8236 15.9712C16.1123 18.7053 14.8941 22.4828 14.8941 27H18.9239C18.9239 23.1817 19.941 20.5375 21.7001 18.7635L18.8236 15.9712ZM14.8941 27C14.8941 31.4836 16.1167 35.2477 18.8105 38.0154L21.7132 35.2498C19.9366 33.4245 18.9239 30.7668 18.9239 27H14.8941ZM18.8371 38.0422C21.5797 40.7557 25.2797 42.0071 29.6754 42.0071V38.0201C26.076 38.0201 23.5004 37.0176 21.6866 35.223L18.8371 38.0422ZM62.5954 18.7708L60.5853 18.6327L60.4357 20.7643H62.5954V18.7708ZM65.8837 10.4141L67.4727 11.6398L67.4778 11.6334L67.4827 11.627L65.8837 10.4141ZM100.185 3.71589L99.5337 5.60226L99.5446 5.60593L99.5555 5.60948L100.185 3.71589ZM108.052 8.4365L106.551 9.76666L106.565 9.78294L106.58 9.79891L108.052 8.4365ZM108.89 21.3863L107.268 20.2025L107.259 20.2149L107.25 20.2276L108.89 21.3863ZM109.471 30.3172L107.993 31.6723L108.01 31.6908L108.028 31.7089L109.471 30.3172ZM109.084 44.7342L110.619 46.0245L110.625 46.0174L110.631 46.0104L109.084 44.7342ZM100.637 50.0927L101.3 51.975L101.31 51.9716L101.32 51.9681L100.637 50.0927ZM73.6854 49.9652L72.9849 51.8343L72.9943 51.8377L73.0036 51.841L73.6854 49.9652ZM64.7231 44.0325L63.1523 45.2809L63.1636 45.2949L63.1753 45.3087L64.7231 44.0325ZM61.3703 34.974V32.9805H59.2795L59.3568 35.0478L61.3703 34.974ZM76.2645 34.974L78.2532 34.6537L77.9778 32.9805H76.2645V34.974ZM79.2949 39.2481L78.2582 40.9575L78.2742 40.967L78.2905 40.9762L79.2949 39.2481ZM94.189 39.4395L93.2696 37.6656L93.26 37.6704L93.2506 37.6754L94.189 39.4395ZM95.9299 33.5068L94.3565 34.7521L94.3778 34.7785L94.4001 34.8042L95.9299 33.5068ZM93.0929 32.1034L92.6491 34.0479L92.6623 34.0508L93.0929 32.1034ZM79.2949 31.6568H77.28V33.6503H79.2949V31.6568ZM79.2949 21.8966V19.9031H77.28V21.8966H79.2949ZM93.6732 14.433L92.7084 16.1831L92.7399 16.2001L92.7721 16.216L93.6732 14.433ZM80.391 14.7519L81.4208 16.4654L81.4378 16.4554L81.4547 16.445L80.391 14.7519ZM77.554 18.7708V20.7643H79.2541L79.5402 19.1063L77.554 18.7708ZM64.6054 18.909C64.7915 16.2579 65.7325 13.8481 67.4727 11.6398L64.2946 9.18832C62.0803 11.9983 60.8291 15.1597 60.5853 18.6327L64.6054 18.909ZM67.4827 11.627C69.1976 9.41393 71.7377 7.56158 75.2295 6.13204L73.6887 2.44799C69.7012 4.08046 66.5243 6.31081 64.2847 9.20114L67.4827 11.627ZM75.2295 6.13204C78.6574 4.72866 82.9565 3.98701 88.1927 3.98701V0C82.5967 0 77.7401 0.789352 73.6887 2.44799L75.2295 6.13204ZM88.1927 3.98701C92.6296 3.98701 96.3973 4.54171 99.5337 5.60226L100.837 1.82952C97.1818 0.593557 92.9544 0 88.1927 0V3.98701ZM99.5555 5.60948C102.712 6.63707 104.996 8.05036 106.551 9.76666L109.552 7.10634C107.409 4.73995 104.451 3.00617 100.815 1.8223L99.5555 5.60948ZM106.58 9.79891C108.125 11.4308 108.873 13.3049 108.873 15.5174H112.903C112.903 12.2863 111.761 9.43983 109.523 7.07409L106.58 9.79891ZM108.873 15.5174C108.873 17.198 108.357 18.743 107.268 20.2025L110.511 22.5701C112.087 20.4572 112.903 18.0895 112.903 15.5174H108.873ZM107.25 20.2276C106.268 21.5879 102.144 26.0239 99.5 27L103.34 27.5281C106.455 26.3778 108.933 24.757 110.529 22.545L107.25 20.2276ZM99.5 27C102.282 27.659 106.701 30.2939 107.993 31.6723L110.947 28.9621C108.972 26.8532 106.234 25.4655 102.911 24.6786L99.5 27ZM108.028 31.7089C109.283 32.9829 109.97 34.6679 109.97 36.9516H114C114 33.7917 113.01 31.0537 110.913 28.9255L108.028 31.7089ZM109.97 36.9516C109.97 39.3603 109.179 41.5066 107.535 43.458L110.631 46.0104C112.856 43.3688 114 40.3267 114 36.9516H109.97ZM107.547 43.4439C105.901 45.3618 103.421 46.981 99.9534 48.2173L101.32 51.9681C105.246 50.5678 108.397 48.6146 110.619 46.0245L107.547 43.4439ZM99.9731 48.2105C96.5499 49.3919 92.2961 50.013 87.161 50.013V54C92.6002 54 97.3302 53.3452 101.3 51.975L99.9731 48.2105ZM87.161 50.013C82.1757 50.013 77.9242 49.3546 74.3671 48.0893L73.0036 51.841C77.0978 53.2975 81.8301 54 87.161 54V50.013ZM74.3859 48.096C70.8194 46.7876 68.1511 44.9884 66.271 42.7562L63.1753 45.3087C65.5936 48.18 68.9001 50.3358 72.9849 51.8343L74.3859 48.096ZM66.2939 42.7841C64.4694 40.5368 63.4973 37.9331 63.3838 34.9002L59.3568 35.0478C59.5012 38.9045 60.7643 42.3398 63.1523 45.2809L66.2939 42.7841ZM61.3703 36.9675H76.2645V32.9805H61.3703V36.9675ZM74.2758 35.2944C74.6793 37.7472 76.0712 39.6592 78.2582 40.9575L80.3315 37.5387C79.0797 36.7956 78.4513 35.8582 78.2532 34.6537L74.2758 35.2944ZM78.2905 40.9762C80.47 42.2161 83.5199 42.7088 87.161 42.7088V38.7218C83.7526 38.7218 81.5585 38.2363 80.2992 37.5199L78.2905 40.9762ZM87.161 42.7088C90.3512 42.7088 93.0743 42.2727 95.1274 41.2035L93.2506 37.6754C92.037 38.3073 90.0747 38.7218 87.161 38.7218V42.7088ZM95.1084 41.2133C96.1665 40.6764 97.085 39.9622 97.7378 39.0182C98.4029 38.0566 98.7185 36.9616 98.7185 35.8033H94.6887C94.6887 36.2186 94.5852 36.5164 94.4121 36.7668C94.2267 37.0349 93.8879 37.3519 93.2696 37.6656L95.1084 41.2133ZM98.7185 35.8033C98.7185 34.4882 98.3466 33.2331 97.4597 32.2094L94.4001 34.8042C94.5448 34.9712 94.6887 35.2472 94.6887 35.8033H98.7185ZM97.5032 32.2615C96.5567 31.0908 95.0608 30.4886 93.5235 30.1559L92.6623 34.0508C93.8761 34.3135 94.2715 34.647 94.3565 34.7521L97.5032 32.2615ZM93.5367 30.1588C91.9886 29.8129 89.9453 29.6633 87.4834 29.6633V33.6503C89.8358 33.6503 91.5322 33.7983 92.6491 34.0479L93.5367 30.1588ZM87.4834 29.6633H79.2949V33.6503H87.4834V29.6633ZM81.3098 31.6568V21.8966H77.28V31.6568H81.3098ZM79.2949 23.8901H87.4834V19.9031H79.2949V23.8901ZM87.4834 23.8901C89.1459 23.8901 90.6143 23.7909 91.8634 23.5728C93.0921 23.3582 94.2333 23.0081 95.1496 22.4253L92.9705 19.0714C92.6833 19.2541 92.1266 19.4782 91.163 19.6464C90.22 19.811 89.0018 19.9031 87.4834 19.9031V23.8901ZM95.1496 22.4253C96.855 21.3405 97.8803 19.7241 97.8803 17.6864H93.8505C93.8505 18.2003 93.6722 18.6252 92.9705 19.0714L95.1496 22.4253ZM97.8803 17.6864C97.8803 16.6145 97.6037 15.5878 96.9938 14.6827C96.3924 13.7902 95.544 13.1296 94.5743 12.6499L92.7721 16.216C93.2638 16.4593 93.5115 16.7025 93.6408 16.8943C93.7617 17.0738 93.8505 17.3122 93.8505 17.6864H97.8803ZM94.638 12.6829C92.7802 11.6802 90.272 11.2912 87.3545 11.2912V15.2782C90.0249 15.2782 91.7292 15.6547 92.7084 16.1831L94.638 12.6829ZM87.3545 11.2912C84.1399 11.2912 81.3795 11.7968 79.3272 13.0588L81.4547 16.445C82.5834 15.7509 84.4652 15.2782 87.3545 15.2782V11.2912ZM79.3612 13.0384C77.2837 14.2606 75.972 16.0932 75.5678 18.4353L79.5402 19.1063C79.7377 17.9612 80.3174 17.1144 81.4208 16.4654L79.3612 13.0384ZM77.554 16.7773H62.5954V20.7643H77.554V16.7773Z" fill="#151515"/>
</svg>
