<svg width="128" height="32" viewBox="0 0 128 32" fill="none" xmlns="http://www.w3.org/2000/svg">
<g id="logo_new 1" clip-path="url(#clip0_8_16)">
<g id="Group">
<g id="Group_2">
<path id="Vector" d="M7.7 10.2C7.7 10.7 7.6 11.1 7.4 11.5C7.2 11.9 7 12.1 6.7 12.4C6.4 12.6 6.1 12.8 5.8 13C5.5 13.1 5.1 13.2 4.7 13.2V14.1H3V13.2C2.5 13.1 2 13 1.6 12.8C1.2 12.6 0.9 12.4 0.7 12.1C0.5 11.8 0.3 11.5 0.2 11.1C0.1 10.7 0 10.3 0 9.79998V6.09998C0 5.59998 0.1 5.19998 0.3 4.79998C0.4 4.49998 0.7 4.19998 0.9 3.99998C1.2 3.69998 1.5 3.59998 1.9 3.39998C2.3 3.19998 2.6 3.19998 3 3.19998V2.59998H4.8V3.19998C5.2 3.19998 5.5 3.29998 5.9 3.39998C6.2 3.49998 6.5 3.69998 6.8 3.99998C7.1 4.19998 7.3 4.59998 7.5 4.89998C7.7 5.29998 7.8 5.69998 7.8 6.19998V10.2H7.7ZM3 4.59998C2.6 4.69998 2.3 4.79998 2 4.99998C1.8 5.29998 1.7 5.59998 1.7 5.99998V10.4C1.7 10.6 1.7 10.8 1.8 11C1.9 11.2 2 11.3 2.1 11.4C2.2 11.5 2.4 11.6 2.5 11.7C2.7 11.8 2.8 11.8 3 11.8V4.59998ZM6.1 5.99998C6.1 5.59998 6 5.29998 5.7 4.99998C5.5 4.79998 5.2 4.69998 4.8 4.59998V11.7C4.9 11.7 5.1 11.6 5.2 11.6C5.4 11.5 5.5 11.4 5.6 11.3C5.7 11.2 5.8 11.1 5.9 10.9C6 10.7 6 10.6 6 10.4V5.99998H6.1Z" fill="white"/>
<path id="Vector_2" d="M16.6 11.1C16.6 12.1 16.4 12.9 15.9 13.4C15.4 13.9 14.7 14.2 13.8 14.2C12.8 14.2 12.1 14 11.7 13.5C11.3 13 11 12.3 11 11.4V5.59998C11 5.19998 11.1 4.69998 11.2 4.39998C11.3 3.99998 11.5 3.69998 11.7 3.39998C11.9 3.09998 12.2 2.89998 12.6 2.79998C13 2.69998 13.4 2.59998 13.9 2.59998C14.4 2.59998 14.9 2.69998 15.2 2.79998C15.5 2.79998 15.8 2.99998 16 3.29998C16.2 3.59998 16.4 3.89998 16.5 4.29998C16.6 4.69998 16.6 5.09998 16.6 5.59998V11.1ZM14.8 5.39998C14.8 5.09998 14.7 4.79998 14.6 4.49998C14.5 4.19998 14.2 4.09998 13.8 4.09998C13.6 4.09998 13.4 4.09998 13.3 4.19998C13.1 4.39998 13 4.49998 13 4.69998C12.9 4.79998 12.9 4.99998 12.9 5.19998C12.9 5.39998 12.9 5.49998 12.9 5.69998V11.5C12.9 11.8 13 12.1 13.1 12.3C13.2 12.5 13.5 12.7 13.9 12.7C14.3 12.7 14.5 12.6 14.7 12.3C14.9 12.1 14.9 11.8 14.9 11.4V5.39998H14.8Z" fill="white"/>
<path id="Vector_3" d="M23.8 14.1V9.09998H21.7V14.1H20V2.59998H21.8V7.39998H23.9V2.59998H25.7V14.1H23.8Z" fill="white"/>
<path id="Vector_4" d="M29.9 14.1V16.3H28.4V12.6L29.1 12.5C29.4 12.2 29.6 11.8 29.7 11.4C29.8 11 29.9 10.4 29.9 9.70001L30.1 2.70001H35.3V12.6H36V16.4H34.5V14.2H29.9V14.1ZM31.5 9.60001C31.5 10.3 31.4 10.8 31.4 11.3C31.3 11.8 31.2 12.2 31 12.5H33.5V4.30001H31.7L31.5 9.60001Z" fill="white"/>
<path id="Vector_5" d="M46.7999 2.5C47.2999 2.5 47.7 2.6 48 2.7C48.3 2.8 48.6 3 48.9 3.2C49.1 3.4 49.3 3.7 49.4 4C49.5 4.3 49.5999 4.7 49.5999 5.1L47.9 5.5C47.9 5.1 47.8 4.7 47.7 4.5C47.5 4.2 47.3 4.1 46.9 4.1C46.7 4.1 46.5 4.1 46.4 4.2C46.3 4.3 46.1999 4.4 46.0999 4.5C45.9999 4.6 46 4.8 46 4.9C46 5.1 46 5.2 46 5.4V11.2C46 11.3 46 11.4 46 11.6C46 11.7 46.0999 11.9 46.0999 12C46.1999 12.1 46.3 12.2 46.4 12.3C46.5 12.4 46.7 12.4 46.9 12.4C47.6 12.4 47.9 11.9 47.9 11C48.2 11.1 48.4999 11.1 48.7999 11.1C49.0999 11.1 49.4 11.2 49.7 11.2C49.7 12.1 49.4 12.8 49 13.3C48.5 13.8 47.9 14.1 47 14.1C46 14.1 45.3 13.9 44.9 13.4C44.4 12.9 44.2 12.2 44.2 11.3V5.6C44.2 5.2 44.1999 4.8 44.2999 4.4C44.3999 4 44.5999 3.7 44.7999 3.4C44.9999 3.1 45.3 2.9 45.7 2.7C45.8 2.6 46.1999 2.5 46.7999 2.5Z" fill="white"/>
<path id="Vector_6" d="M58 11.1C58 12.1 57.8 12.9 57.3 13.4C56.8 13.9 56.1 14.2 55.2 14.2C54.2 14.2 53.5 14 53.1 13.5C52.7 13 52.4 12.3 52.4 11.4V5.59998C52.4 5.19998 52.5 4.69998 52.6 4.39998C52.7 3.99998 52.9 3.69998 53.1 3.39998C53.3 3.09998 53.6 2.89998 54 2.79998C54.4 2.69998 54.8 2.59998 55.3 2.59998C55.8 2.59998 56.3 2.69998 56.6 2.79998C57 2.89998 57.2 3.09998 57.5 3.39998C57.7 3.69998 57.9 3.99998 58 4.39998C58 4.59998 58 5.09998 58 5.49998V11.1ZM56.2 5.39998C56.2 5.09998 56.1 4.79998 56 4.49998C55.9 4.19998 55.6 4.09998 55.2 4.09998C55 4.09998 54.8 4.09998 54.7 4.19998C54.6 4.29998 54.5 4.39998 54.4 4.49998C54.3 4.59998 54.3 4.79998 54.2 4.99998C54.2 5.19998 54.2 5.29998 54.2 5.49998V11.3C54.2 11.6 54.3 11.9 54.4 12.1C54.6 12.3 54.8 12.5 55.2 12.5C55.6 12.5 55.8 12.4 56 12.1C56.2 11.9 56.2 11.6 56.2 11.2V5.39998Z" fill="white"/>
<path id="Vector_7" d="M62.2 14.1V16.3H60.7V12.6L61.4 12.5C61.7 12.2 61.9 11.8 62 11.4C62.1 11 62.2 10.4 62.2 9.70001L62.4 2.70001H67.5999V12.6H68.3V16.4H66.8V14.2H62.2V14.1ZM63.7999 9.60001C63.7999 10.3 63.7 10.8 63.7 11.3C63.6 11.8 63.4999 12.2 63.2999 12.5H65.8V4.30001H64L63.7999 9.60001Z" fill="white"/>
<path id="Vector_8" d="M71.2 14.1V2.59998H76.3V4.29998H73V7.39998H75.9V9.09998H73V12.4H76.3V14.1H71.2Z" fill="white"/>
<path id="Vector_9" d="M83.4 6.9L81 14.1H79.3V2.6H81V9.9L83.4 2.6H85.1V14.1H83.3L83.4 6.9ZM81.2 0C81.2 0.1 81.2 0.2 81.3 0.4C81.4 0.5 81.4 0.6 81.5 0.8C81.6 0.9 81.7 1 81.8 1.1C81.9 1.2 82.1 1.2 82.2 1.2C82.4 1.2 82.5 1.2 82.6 1.1C82.7 1 82.8 0.9 82.9 0.8C83 0.7 83.1 0.6 83.1 0.4C83.1 0.3 83.2 0.2 83.2 0H84.5C84.5 0.2 84.4 0.5 84.3 0.8C84.4 1 84.2 1.3 84 1.5C83.8 1.7 83.6 1.9 83.3 2.1C83 2.2 82.7 2.3 82.3 2.3C81.9 2.3 81.5 2.2 81.2 2.1C80.9 2 80.7 1.8 80.5 1.5C80.3 1.3 80.2 1 80.1 0.8C80 0.5 79.9 0.2 79.9 0H81.2Z" fill="white"/>
<path id="Vector_10" d="M91.3 2.5C91.8 2.5 92.2 2.6 92.5 2.7C92.8 2.8 93.1 3 93.4 3.2C93.6 3.4 93.8 3.7 93.9 4C94 4.3 94.1 4.7 94.1 5.1L92.4 5.5C92.4 5.1 92.3 4.7 92.2 4.5C92 4.2 91.8 4.1 91.4 4.1C91.2 4.1 91 4.1 90.9 4.2C90.8 4.3 90.7 4.4 90.6 4.5C90.5 4.6 90.5 4.8 90.5 4.9C90.5 5.1 90.5 5.2 90.5 5.4V11.2C90.5 11.3 90.5 11.4 90.5 11.6C90.5 11.7 90.6 11.9 90.6 12C90.7 12.1 90.8 12.2 90.9 12.3C91 12.4 91.2 12.4 91.4 12.4C92.1 12.4 92.4 11.9 92.4 11C92.7 11.1 93 11.1 93.3 11.1C93.6 11.1 93.9 11.2 94.2 11.2C94.2 12.1 93.9 12.8 93.5 13.3C93 13.8 92.4 14.1 91.5 14.1C90.5 14.1 89.8 13.9 89.4 13.4C88.9 12.9 88.7 12.2 88.7 11.3V5.6C88.7 5.2 88.7 4.8 88.8 4.4C88.9 4 89.1 3.7 89.3 3.4C89.5 3.1 89.8 2.9 90.2 2.7C90.3 2.6 90.8 2.5 91.3 2.5Z" fill="white"/>
<path id="Vector_11" d="M99.9 4.29998V14.1H98.1V4.29998H96.2V2.59998H101.7V4.29998H99.9Z" fill="white"/>
<path id="Vector_12" d="M108.7 8.09998C109.2 8.29998 109.6 8.59998 109.7 8.99998C109.9 9.49998 110 9.99998 110 10.6C110 11.8 109.7 12.7 109.2 13.2C108.7 13.8 107.9 14 106.8 14H104.4V2.59998H106.9C107.9 2.59998 108.7 2.89998 109.1 3.39998C109.6 3.89998 109.8 4.69998 109.8 5.69998C109.8 6.19998 109.7 6.69998 109.5 7.09998C109.5 7.49998 109.1 7.79998 108.7 8.09998ZM108.2 5.79998C108.2 5.29998 108.1 4.89998 107.9 4.69998C107.7 4.49998 107.3 4.39998 106.9 4.39998H106.3V7.39998H106.9C107.4 7.39998 107.7 7.29998 107.9 6.99998C108.1 6.59998 108.2 6.19998 108.2 5.79998ZM108.3 10.4C108.3 9.89998 108.2 9.49998 108 9.19998C107.8 8.89998 107.5 8.79998 107 8.79998H106.3V12.4H107C107.3 12.4 107.5 12.3 107.7 12.2C107.9 12.1 108 12 108.1 11.8C108.2 11.6 108.3 11.4 108.3 11.2C108.3 11 108.3 10.7 108.3 10.4Z" fill="white"/>
<path id="Vector_13" d="M117.5 6.89998L115.1 14.1H113.4V2.59998H115.1V9.89998H115.2L117.6 2.59998H119.3V14.1H117.5V6.89998Z" fill="white"/>
<path id="Vector_14" d="M122.3 14.1L122.9 10.5C123 10.1 123.1 9.80001 123.3 9.50001C123.5 9.20001 123.7 8.90001 124 8.80001C123.5 8.60001 123.1 8.20001 122.9 7.80001C122.7 7.40001 122.6 6.80001 122.6 6.20001C122.6 5.10001 122.9 4.20001 123.4 3.60001C123.9 3.00001 124.7 2.70001 125.7 2.70001H128.3V14.2H126.5V9.20001H126C125.7 9.20001 125.4 9.30001 125.1 9.60001C124.8 9.80001 124.7 10.3 124.5 10.9L124 14.1H122.3ZM125.8 4.30001C125.3 4.30001 124.9 4.50001 124.7 4.80001C124.5 5.10001 124.4 5.50001 124.4 6.10001C124.4 6.70001 124.5 7.00001 124.8 7.30001C125.1 7.50001 125.4 7.60001 125.8 7.60001H126.5V4.30001H125.8Z" fill="white"/>
<path id="Vector_15" d="M5.40005 23.6L2.40005 32.5H0.300049V18.3H2.50005V27.3H2.60005L5.60005 18.3H7.80005V32.5H5.50005L5.40005 23.6Z" fill="white"/>
<path id="Vector_16" d="M18.5 32.5V26.3H16V32.5H13.8V18.3H16V24.2H18.6V18.3H20.8V32.5H18.5Z" fill="white"/>
<path id="Vector_17" d="M31.7 32.5V26.3H29.1V32.5H26.9V18.3H29.1V24.2H31.7V18.3H33.9V32.5H31.7Z" fill="white"/>
<path id="Vector_18" d="M46.9 28.9C46.9 30.1 46.6 31.1 46.1 31.7C45.5 32.3 44.7 32.6 43.4 32.6C42.2 32.6 41.3 32.3 40.8 31.7C40.3 31.1 40 30.2 40 29.1V22C40 21.4 40.1 20.9 40.2 20.5C40.3 20 40.5 19.6 40.8 19.3C41.1 19 41.4 18.7 41.9 18.5C42.3 18.3 42.9 18.2 43.5 18.2C44.2 18.2 44.7 18.3 45.2 18.5C45.6 18.7 46 18.9 46.3 19.2C46.6 19.5 46.8 19.9 46.9 20.4C47 20.9 47.1 21.4 47.1 22V28.9H46.9ZM44.7 21.8C44.7 21.4 44.6 21.1 44.4 20.7C44.2 20.4 43.9 20.2 43.4 20.2C43.1 20.2 42.9 20.3 42.8 20.4C42.6 20.5 42.5 20.7 42.4 20.8C42.3 21 42.2 21.2 42.2 21.4C42.2 21.6 42.1 21.8 42.1 22V29.2C42.1 29.6 42.2 29.9 42.4 30.2C42.6 30.5 42.9 30.6 43.4 30.6C43.9 30.6 44.2 30.4 44.4 30.1C44.6 29.8 44.7 29.4 44.7 29V21.8Z" fill="white"/>
<path id="Vector_19" d="M58.2 25.1C58.8 25.3 59.3 25.7 59.5 26.3C59.7 26.9 59.9 27.5 59.9 28.3C59.9 29.8 59.6 30.9 58.9 31.6C58.3 32.3 57.3 32.6 56 32.6H53V18.3H56.1C57.4 18.3 58.3 18.6 58.8 19.3C59.4 20 59.7 20.9 59.7 22.2C59.7 22.9 59.6 23.4 59.4 23.9C59.2 24.4 58.8 24.8 58.2 25V25.1ZM57.6 22.2C57.6 21.5 57.5 21.1 57.2 20.8C56.9 20.5 56.5 20.4 55.9 20.4H55.2V24H55.9C56.5 24 56.9 23.8 57.2 23.5C57.5 23.3 57.6 22.8 57.6 22.2ZM57.7 28C57.7 27.3 57.6 26.8 57.3 26.5C57.1 26.2 56.6 26 56 26H55.2V30.4H56.1C56.5 30.4 56.7 30.3 57 30.2C57.2 30.1 57.4 29.9 57.5 29.7C57.6 29.5 57.7 29.2 57.7 28.9C57.7 28.7 57.7 28.4 57.7 28Z" fill="white"/>
<path id="Vector_20" d="M71.1 32.5L70.5 29.5H67.9C67.8 30 67.7 30.5 67.6 31C67.5 31.5 67.4 32 67.3 32.5H65C65.5 30.1 66 27.7 66.4 25.4C66.9 23 67.4 20.7 67.8 18.3H70.3L73.2 32.5H71.1ZM69.1 21.6C69 22.6 68.8 23.6 68.7 24.5C68.5 25.5 68.4 26.5 68.2 27.5H70.2L69.3 21.6H69.1Z" fill="white"/>
<path id="Vector_21" d="M85.6 18.3V30.5H86.5V35.3H84.6V32.6H78.6V18.3H80.8V30.5H83.3V18.3H85.6Z" fill="white"/>
<path id="Vector_22" d="M96.9 23.6L93.9 32.5H91.8V18.3H94V27.3L97 18.3H99.2V32.5H97L96.9 23.6Z" fill="white"/>
<path id="Vector_23" d="M104.7 32.5L105.5 28C105.6 27.5 105.7 27.1 106 26.7C106.2 26.3 106.5 26 106.9 25.8C106.2 25.5 105.8 25.1 105.5 24.6C105.3 24 105.1 23.4 105.1 22.6C105.1 21.2 105.4 20.1 106.1 19.4C106.8 18.7 107.7 18.3 108.9 18.3H112.2V32.5H110V26.4H109.4C109 26.4 108.7 26.5 108.3 26.8C108 27.1 107.7 27.6 107.6 28.4L106.9 32.4H104.7V32.5ZM109.1 20.4C108.4 20.4 108 20.6 107.7 21C107.4 21.4 107.3 21.9 107.3 22.6C107.3 23.3 107.5 23.8 107.8 24C108.1 24.3 108.6 24.4 109.1 24.4H110V20.4H109.1Z" fill="white"/>
<path id="Vector_24" d="M122.5 29.4L121.5 26.8L120.6 24.3H120.5V32.5H118.3V18.3H120.5L122.1 22.3L123.2 25.4H123.3L124.5 22.2L126 18.2H128.1V32.4H125.9V24.2H125.8L124.9 26.7L123.9 29.3H122.5V29.4Z" fill="white"/>
</g>
</g>
</g>
<defs>
<clipPath id="clip0_8_16">
<rect width="128" height="32" fill="white"/>
</clipPath>
</defs>
</svg>
